<svg xmlns="http://www.w3.org/2000/svg" version="1.0" width="64.000000pt" height="64.000000pt" viewBox="0 0 64.000000 64.000000" preserveAspectRatio="xMidYMid meet">
<metadata fill="#ff4a3f">
Created by potrace 1.16, written by Peter Selinger 2001-2019
</metadata>
<g transform="translate(0.000000,64.000000) scale(0.006400,-0.005689)" fill="#ff4a3f" stroke="none">
<path d="M4515 10624 c-672 -43 -1259 -198 -1850 -489 -708 -349 -1298 -847 -1765 -1491 -422 -582 -714 -1273 -834 -1974 -54 -317 -61 -409 -61 -820 0 -404 7 -504 56 -795 148 -880 543 -1705 1133 -2370 147 -165 829 -839 961 -949 677 -564 1491 -933 2345 -1061 315 -48 752 -66 1065 -46 512 34 981 137 1440 316 997 390 1852 1130 2382 2063 344 605 544 1259 604 1976 16 193 7 778 -15 956 -119 967 -478 1798 -1100 2545 -132 158 -867 892 -1026 1025 -750 624 -1614 991 -2585 1095 -143 15 -617 27 -750 19z m550 -125 c418 -27 781 -98 1175 -229 422 -140 783 -319 1155 -572 194 -132 195 -136 13 -43 -572 293 -1142 456 -1803 515 -153 14 -602 14 -765 0 -1369 -115 -2581 -778 -3422 -1871 -1118 -1454 -1292 -3458 -442 -5099 72 -139 55 -127 -60 45 -379 564 -627 1186 -735 1840 -49 296 -56 392 -56 770 1 375 10 498 61 787 170 973 634 1850 1345 2543 452 440 968 773 1565 1008 611 240 1312 350 1969 306z m410 -999 c745 -52 1415 -280 2031 -691 174 -116 438 -418 657 -751 620 -943 816 -2082 546 -3177 -375 -1521 -1604 -2698 -3139 -3005 -243 -49 -418 -67 -710 -73 -213 -4 -314 -2 -447 11 -922 88 -1752 468 -2434 1114 -67 64 -118 124 -171 204 -619 926 -831 2047 -592 3117 114 508 306 957 600 1401 604 915 1566 1561 2639 1775 365 73 700 97 1020 75z m2910 -1487 c518 -621 845 -1406 926 -2228 17 -166 17 -593 1 -755 -120 -1192 -716 -2240 -1674 -2943 -263 -193 -675 -417 -968 -526 -372 -138 -740 -219 -1135 -252 -181 -15 -617 -6 -795 16 -819 100 -1568 432 -2197 973 -68 58 -123 107 -123 109 0 2 33 -18 73 -45 545 -366 1219 -603 1902 -668 232 -22 693 -15 910 15 661 90 1246 308 1780 664 567 378 1038 894 1365 1496 721 1328 655 2974 -171 4241 -76 117 -63 105 106 -97z" fill="#ff4a3f"/>
<path d="M3180 7940 l0 -220 235 0 235 0 0 -2095 0 -2095 -235 0 -235 0 0 -220 0 -220 1820 0 1820 0 0 560 0 560 -225 0 -225 0 0 -340 0 -340 -1130 0 -1130 0 0 950 0 950 1160 0 1160 0 0 220 0 220 -1160 0 -1160 0 0 925 0 925 1080 0 1080 0 0 -340 0 -340 225 0 225 0 0 560 0 560 -1770 0 -1770 0 0 -220z" fill="#ff4a3f"/>
</g>
</svg>